<svg width="56" height="59" viewBox="0 0 56 59" fill="none" xmlns="http://www.w3.org/2000/svg">
<path d="M16.3336 16.9383H39.6669V21.2697C39.6669 22.3585 40.9269 22.8909 41.6502 22.1166L48.1602 15.3655C48.6269 14.8815 48.6269 14.1314 48.1602 13.6474L41.6502 6.89633C40.9269 6.1462 39.6669 6.67855 39.6669 7.76744V12.0988H14.0002C12.7169 12.0988 11.6669 13.1877 11.6669 14.5185V24.1976C11.6669 25.5284 12.7169 26.6173 14.0002 26.6173C15.2836 26.6173 16.3336 25.5284 16.3336 24.1976V16.9383ZM39.6669 41.1358H16.3336V36.8045C16.3336 35.7156 15.0736 35.1832 14.3502 35.9576L7.84023 42.7087C7.37357 43.1926 7.37357 43.9427 7.84023 44.4267L14.3502 51.1778C15.0736 51.9279 16.3336 51.3956 16.3336 50.3067V45.9753H42.0002C43.2836 45.9753 44.3336 44.8864 44.3336 43.5556V33.8766C44.3336 32.5457 43.2836 31.4568 42.0002 31.4568C40.7169 31.4568 39.6669 32.5457 39.6669 33.8766V41.1358Z" fill="white"/>
</svg>
