<svg width="56" height="56" viewBox="0 0 56 56" fill="none" xmlns="http://www.w3.org/2000/svg">
<path d="M16.3336 16.3333H39.6669V20.5099C39.6669 21.5599 40.9269 22.0733 41.6502 21.3266L48.1602 14.8166C48.6269 14.3499 48.6269 13.6266 48.1602 13.1599L41.6502 6.64994C40.9269 5.92661 39.6669 6.43994 39.6669 7.48994V11.6666H14.0002C12.7169 11.6666 11.6669 12.7166 11.6669 13.9999V23.3333C11.6669 24.6166 12.7169 25.6666 14.0002 25.6666C15.2836 25.6666 16.3336 24.6166 16.3336 23.3333V16.3333ZM39.6669 39.6666H16.3336V35.4899C16.3336 34.4399 15.0736 33.9266 14.3502 34.6733L7.84023 41.1833C7.37357 41.6499 7.37357 42.3733 7.84023 42.8399L14.3502 49.3499C15.0736 50.0733 16.3336 49.5599 16.3336 48.5099V44.3333H42.0002C43.2836 44.3333 44.3336 43.2833 44.3336 41.9999V32.6666C44.3336 31.3833 43.2836 30.3333 42.0002 30.3333C40.7169 30.3333 39.6669 31.3833 39.6669 32.6666V39.6666Z" fill="#3F3F3F"/>
</svg>
