<svg width="36" height="47" viewBox="0 0 36 47" fill="none" xmlns="http://www.w3.org/2000/svg">
<path d="M27.403 5H13.801C12.5541 5 11.534 6.02015 11.534 7.267V20.869C11.534 22.1158 12.5541 23.136 13.801 23.136H27.403C28.6498 23.136 29.67 22.1158 29.67 20.869V7.267C29.67 6.02015 28.6498 5 27.403 5ZM27.403 20.869H13.801V7.267H27.403V20.869ZM18.9017 19.7355C20.466 19.7355 21.7355 18.466 21.7355 16.9017V10.6675H25.136V8.4005H20.602V14.6461C20.1259 14.2834 19.5478 14.068 18.9017 14.068C17.3375 14.068 16.068 15.3375 16.068 16.9017C16.068 18.466 17.3375 19.7355 18.9017 19.7355ZM9.267 9.534H7V25.403C7 26.6498 8.02015 27.67 9.267 27.67H25.136V25.403H9.267V9.534Z" fill="white"/>
<path d="M2.55582 41.89H4.85582V43H1.15582V36.02H2.55582V41.89ZM6.45566 36.8C6.209 36.8 6.00233 36.7233 5.83566 36.57C5.67566 36.41 5.59566 36.2133 5.59566 35.98C5.59566 35.7467 5.67566 35.5533 5.83566 35.4C6.00233 35.24 6.209 35.16 6.45566 35.16C6.70233 35.16 6.90566 35.24 7.06566 35.4C7.23233 35.5533 7.31566 35.7467 7.31566 35.98C7.31566 36.2133 7.23233 36.41 7.06566 36.57C6.90566 36.7233 6.70233 36.8 6.45566 36.8ZM7.14566 37.46V43H5.74566V37.46H7.14566ZM9.92887 38.27C10.1089 38.0033 10.3555 37.7867 10.6689 37.62C10.9889 37.4533 11.3522 37.37 11.7589 37.37C12.2322 37.37 12.6589 37.4867 13.0389 37.72C13.4255 37.9533 13.7289 38.2867 13.9489 38.72C14.1755 39.1467 14.2889 39.6433 14.2889 40.21C14.2889 40.7767 14.1755 41.28 13.9489 41.72C13.7289 42.1533 13.4255 42.49 13.0389 42.73C12.6589 42.97 12.2322 43.09 11.7589 43.09C11.3455 43.09 10.9822 43.01 10.6689 42.85C10.3622 42.6833 10.1155 42.47 9.92887 42.21V43H8.52887V35.6H9.92887V38.27ZM12.8589 40.21C12.8589 39.8767 12.7889 39.59 12.6489 39.35C12.5155 39.1033 12.3355 38.9167 12.1089 38.79C11.8889 38.6633 11.6489 38.6 11.3889 38.6C11.1355 38.6 10.8955 38.6667 10.6689 38.8C10.4489 38.9267 10.2689 39.1133 10.1289 39.36C9.99553 39.6067 9.92887 39.8967 9.92887 40.23C9.92887 40.5633 9.99553 40.8533 10.1289 41.1C10.2689 41.3467 10.4489 41.5367 10.6689 41.67C10.8955 41.7967 11.1355 41.86 11.3889 41.86C11.6489 41.86 11.8889 41.7933 12.1089 41.66C12.3355 41.5267 12.5155 41.3367 12.6489 41.09C12.7889 40.8433 12.8589 40.55 12.8589 40.21ZM16.7062 38.32C16.8862 38.0267 17.1195 37.7967 17.4062 37.63C17.6995 37.4633 18.0329 37.38 18.4062 37.38V38.85H18.0362C17.5962 38.85 17.2629 38.9533 17.0362 39.16C16.8162 39.3667 16.7062 39.7267 16.7062 40.24V43H15.3062V37.46H16.7062V38.32ZM18.9892 40.21C18.9892 39.65 19.0992 39.1533 19.3192 38.72C19.5458 38.2867 19.8492 37.9533 20.2292 37.72C20.6158 37.4867 21.0458 37.37 21.5192 37.37C21.9325 37.37 22.2925 37.4533 22.5992 37.62C22.9125 37.7867 23.1625 37.9967 23.3492 38.25V37.46H24.7592V43H23.3492V42.19C23.1692 42.45 22.9192 42.6667 22.5992 42.84C22.2858 43.0067 21.9225 43.09 21.5092 43.09C21.0425 43.09 20.6158 42.97 20.2292 42.73C19.8492 42.49 19.5458 42.1533 19.3192 41.72C19.0992 41.28 18.9892 40.7767 18.9892 40.21ZM23.3492 40.23C23.3492 39.89 23.2825 39.6 23.1492 39.36C23.0158 39.1133 22.8358 38.9267 22.6092 38.8C22.3825 38.6667 22.1392 38.6 21.8792 38.6C21.6192 38.6 21.3792 38.6633 21.1592 38.79C20.9392 38.9167 20.7592 39.1033 20.6192 39.35C20.4858 39.59 20.4192 39.8767 20.4192 40.21C20.4192 40.5433 20.4858 40.8367 20.6192 41.09C20.7592 41.3367 20.9392 41.5267 21.1592 41.66C21.3858 41.7933 21.6258 41.86 21.8792 41.86C22.1392 41.86 22.3825 41.7967 22.6092 41.67C22.8358 41.5367 23.0158 41.35 23.1492 41.11C23.2825 40.8633 23.3492 40.57 23.3492 40.23ZM27.5265 38.32C27.7065 38.0267 27.9399 37.7967 28.2265 37.63C28.5199 37.4633 28.8532 37.38 29.2265 37.38V38.85H28.8565C28.4165 38.85 28.0832 38.9533 27.8565 39.16C27.6365 39.3667 27.5265 39.7267 27.5265 40.24V43H26.1265V37.46H27.5265V38.32ZM35.4695 37.46L32.0395 45.62H30.5495L31.7495 42.86L29.5295 37.46H31.0995L32.5295 41.33L33.9795 37.46H35.4695Z" fill="white"/>
</svg>
