<svg width="36" height="47" viewBox="0 0 36 47" fill="none" xmlns="http://www.w3.org/2000/svg">
<path d="M28.6386 24.9036L24.4844 20.7616C25.8247 19.054 26.552 16.9454 26.5493 14.7746C26.5493 12.8414 25.976 10.9516 24.9019 9.34414C23.8279 7.73671 22.3013 6.48387 20.5152 5.74405C18.7291 5.00424 16.7638 4.81066 14.8677 5.18782C12.9716 5.56498 11.2299 6.49592 9.86293 7.86293C8.49592 9.22993 7.56498 10.9716 7.18782 12.8677C6.81066 14.7638 7.00424 16.7291 7.74405 18.5152C8.48387 20.3013 9.73671 21.8279 11.3441 22.9019C12.9516 23.976 14.8414 24.5493 16.7746 24.5493C18.9454 24.552 21.054 23.8247 22.7616 22.4844L26.9036 26.6386C27.0172 26.7531 27.1523 26.844 27.3012 26.906C27.4501 26.9681 27.6098 27 27.7711 27C27.9324 27 28.0921 26.9681 28.241 26.906C28.3899 26.844 28.525 26.7531 28.6386 26.6386C28.7531 26.525 28.844 26.3899 28.906 26.241C28.9681 26.0921 29 25.9324 29 25.7711C29 25.6098 28.9681 25.4501 28.906 25.3012C28.844 25.1523 28.7531 25.0172 28.6386 24.9036V24.9036ZM9.44366 14.7746C9.44366 13.3247 9.87361 11.9073 10.6792 10.7018C11.4847 9.49619 12.6296 8.55656 13.9692 8.0017C15.3088 7.44683 16.7828 7.30166 18.2048 7.58452C19.6269 7.86739 20.9332 8.5656 21.9584 9.59085C22.9837 10.6161 23.6819 11.9224 23.9647 13.3444C24.2476 14.7665 24.1024 16.2405 23.5476 17.5801C22.9927 18.9196 22.0531 20.0646 20.8475 20.8701C19.6419 21.6756 18.2246 22.1056 16.7746 22.1056C14.8303 22.1056 12.9657 21.3332 11.5909 19.9584C10.216 18.5836 9.44366 16.7189 9.44366 14.7746Z" fill="#3F3F3F"/>
<path d="M3.24355 43.07C2.75689 43.07 2.31689 42.9867 1.92355 42.82C1.53689 42.6533 1.23022 42.4133 1.00355 42.1C0.776888 41.7867 0.660221 41.4167 0.653555 40.99H2.15355C2.17355 41.2767 2.27355 41.5033 2.45355 41.67C2.64022 41.8367 2.89355 41.92 3.21355 41.92C3.54022 41.92 3.79689 41.8433 3.98355 41.69C4.17022 41.53 4.26355 41.3233 4.26355 41.07C4.26355 40.8633 4.20022 40.6933 4.07355 40.56C3.94689 40.4267 3.78689 40.3233 3.59355 40.25C3.40689 40.17 3.14689 40.0833 2.81355 39.99C2.36022 39.8567 1.99022 39.7267 1.70355 39.6C1.42355 39.4667 1.18022 39.27 0.973555 39.01C0.773555 38.7433 0.673555 38.39 0.673555 37.95C0.673555 37.5367 0.776888 37.1767 0.983555 36.87C1.19022 36.5633 1.48022 36.33 1.85355 36.17C2.22689 36.0033 2.65355 35.92 3.13355 35.92C3.85355 35.92 4.43689 36.0967 4.88356 36.45C5.33689 36.7967 5.58689 37.2833 5.63355 37.91H4.09355C4.08022 37.67 3.97689 37.4733 3.78355 37.32C3.59689 37.16 3.34689 37.08 3.03355 37.08C2.76022 37.08 2.54022 37.15 2.37355 37.29C2.21355 37.43 2.13355 37.6333 2.13355 37.9C2.13355 38.0867 2.19355 38.2433 2.31355 38.37C2.44022 38.49 2.59355 38.59 2.77355 38.67C2.96022 38.7433 3.22022 38.83 3.55355 38.93C4.00689 39.0633 4.37689 39.1967 4.66355 39.33C4.95022 39.4633 5.19689 39.6633 5.40355 39.93C5.61022 40.1967 5.71356 40.5467 5.71356 40.98C5.71356 41.3533 5.61689 41.7 5.42355 42.02C5.23022 42.34 4.94689 42.5967 4.57355 42.79C4.20022 42.9767 3.75689 43.07 3.24355 43.07ZM12.0773 40.11C12.0773 40.31 12.064 40.49 12.0373 40.65H7.9873C8.02064 41.05 8.16064 41.3633 8.4073 41.59C8.65397 41.8167 8.9573 41.93 9.3173 41.93C9.8373 41.93 10.2073 41.7067 10.4273 41.26H11.9373C11.7773 41.7933 11.4706 42.2333 11.0173 42.58C10.564 42.92 10.0073 43.09 9.3473 43.09C8.81397 43.09 8.33397 42.9733 7.9073 42.74C7.4873 42.5 7.1573 42.1633 6.9173 41.73C6.68397 41.2967 6.5673 40.7967 6.5673 40.23C6.5673 39.6567 6.68397 39.1533 6.9173 38.72C7.15064 38.2867 7.4773 37.9533 7.8973 37.72C8.3173 37.4867 8.80064 37.37 9.3473 37.37C9.87397 37.37 10.344 37.4833 10.7573 37.71C11.1773 37.9367 11.5006 38.26 11.7273 38.68C11.9606 39.0933 12.0773 39.57 12.0773 40.11ZM10.6273 39.71C10.6206 39.35 10.4906 39.0633 10.2373 38.85C9.98397 38.63 9.67397 38.52 9.3073 38.52C8.96064 38.52 8.6673 38.6267 8.4273 38.84C8.19397 39.0467 8.05064 39.3367 7.9973 39.71H10.6273ZM12.7392 40.21C12.7392 39.65 12.8492 39.1533 13.0692 38.72C13.2958 38.2867 13.5992 37.9533 13.9792 37.72C14.3658 37.4867 14.7958 37.37 15.2692 37.37C15.6825 37.37 16.0425 37.4533 16.3492 37.62C16.6625 37.7867 16.9125 37.9967 17.0992 38.25V37.46H18.5092V43H17.0992V42.19C16.9192 42.45 16.6692 42.6667 16.3492 42.84C16.0358 43.0067 15.6725 43.09 15.2592 43.09C14.7925 43.09 14.3658 42.97 13.9792 42.73C13.5992 42.49 13.2958 42.1533 13.0692 41.72C12.8492 41.28 12.7392 40.7767 12.7392 40.21ZM17.0992 40.23C17.0992 39.89 17.0325 39.6 16.8992 39.36C16.7658 39.1133 16.5858 38.9267 16.3592 38.8C16.1325 38.6667 15.8892 38.6 15.6292 38.6C15.3692 38.6 15.1292 38.6633 14.9092 38.79C14.6892 38.9167 14.5092 39.1033 14.3692 39.35C14.2358 39.59 14.1692 39.8767 14.1692 40.21C14.1692 40.5433 14.2358 40.8367 14.3692 41.09C14.5092 41.3367 14.6892 41.5267 14.9092 41.66C15.1358 41.7933 15.3758 41.86 15.6292 41.86C15.8892 41.86 16.1325 41.7967 16.3592 41.67C16.5858 41.5367 16.7658 41.35 16.8992 41.11C17.0325 40.8633 17.0992 40.57 17.0992 40.23ZM21.2765 38.32C21.4565 38.0267 21.6899 37.7967 21.9765 37.63C22.2699 37.4633 22.6032 37.38 22.9765 37.38V38.85H22.6065C22.1665 38.85 21.8332 38.9533 21.6065 39.16C21.3865 39.3667 21.2765 39.7267 21.2765 40.24V43H19.8765V37.46H21.2765V38.32ZM23.5595 40.23C23.5595 39.6567 23.6762 39.1567 23.9095 38.73C24.1428 38.2967 24.4662 37.9633 24.8795 37.73C25.2928 37.49 25.7662 37.37 26.2995 37.37C26.9862 37.37 27.5528 37.5433 27.9995 37.89C28.4528 38.23 28.7562 38.71 28.9095 39.33H27.3995C27.3195 39.09 27.1828 38.9033 26.9895 38.77C26.8028 38.63 26.5695 38.56 26.2895 38.56C25.8895 38.56 25.5728 38.7067 25.3395 39C25.1062 39.2867 24.9895 39.6967 24.9895 40.23C24.9895 40.7567 25.1062 41.1667 25.3395 41.46C25.5728 41.7467 25.8895 41.89 26.2895 41.89C26.8562 41.89 27.2262 41.6367 27.3995 41.13H28.9095C28.7562 41.73 28.4528 42.2067 27.9995 42.56C27.5462 42.9133 26.9795 43.09 26.2995 43.09C25.7662 43.09 25.2928 42.9733 24.8795 42.74C24.4662 42.5 24.1428 42.1667 23.9095 41.74C23.6762 41.3067 23.5595 40.8033 23.5595 40.23ZM33.0551 37.38C33.4751 37.38 33.8485 37.4733 34.1751 37.66C34.5018 37.84 34.7551 38.11 34.9351 38.47C35.1218 38.8233 35.2151 39.25 35.2151 39.75V43H33.8151V39.94C33.8151 39.5 33.7051 39.1633 33.4851 38.93C33.2651 38.69 32.9651 38.57 32.5851 38.57C32.1985 38.57 31.8918 38.69 31.6651 38.93C31.4451 39.1633 31.3351 39.5 31.3351 39.94V43H29.9351V35.6H31.3351V38.15C31.5151 37.91 31.7551 37.7233 32.0551 37.59C32.3551 37.45 32.6885 37.38 33.0551 37.38Z" fill="#3F3F3F"/>
</svg>
