<svg width="24" height="24" viewBox="0 0 24 24" fill="none" xmlns="http://www.w3.org/2000/svg">
<path d="M19.6602 4.16741C17.0202 2.36741 13.7602 3.20741 12.0002 5.26741C10.2402 3.20741 6.98021 2.35741 4.34021 4.16741C2.94021 5.12741 2.06021 6.74741 2.00021 8.45741C1.86021 12.3374 5.30021 15.4474 10.5502 20.2174L10.6502 20.3074C11.4102 20.9974 12.5802 20.9974 13.3402 20.2974L13.4502 20.1974C18.7002 15.4374 22.1302 12.3274 22.0002 8.44741C21.9402 6.74741 21.0602 5.12741 19.6602 4.16741ZM12.1002 18.7274L12.0002 18.8274L11.9002 18.7274C7.14021 14.4174 4.00021 11.5674 4.00021 8.67741C4.00021 6.67741 5.50021 5.17741 7.50021 5.17741C9.04021 5.17741 10.5402 6.16741 11.0702 7.53741H12.9402C13.4602 6.16741 14.9602 5.17741 16.5002 5.17741C18.5002 5.17741 20.0002 6.67741 20.0002 8.67741C20.0002 11.5674 16.8602 14.4174 12.1002 18.7274Z" fill="#A7A7A7"/>
</svg>
